<svg width="218" height="192" viewBox="0 0 218 192" fill="none" xmlns="http://www.w3.org/2000/svg">
<g id="logo_nazareno 1 (Traced)">
<path id="Layer 1" fill-rule="evenodd" clip-rule="evenodd" d="M88.969 4.41006C83.251 10.2171 82.87 10.7341 80.435 16.0001C76.573 24.3531 76.127 26.0771 76.127 32.6541C76.127 45.5171 83.606 56.0541 100.315 66.7321C112.351 74.4231 124.686 83.4401 129.771 88.2641C135.276 93.4861 138.559 99.8361 140.63 109.268C142.194 116.392 142.208 117.603 140.792 123.871C139.364 130.197 135.444 138.239 131.093 143.77C129.111 146.29 128.92 146.148 127.236 140.917C124.318 131.857 111.28 124.721 95.367 123.476C69.34 121.438 54.033 119.597 48.234 117.806C32.024 112.799 20.008 99.5881 17.042 83.5101C15.814 76.8561 16.531 65.7071 18.73 57.2681C20.521 50.3901 20.496 50.0001 18.268 50.0001C15.127 50.0001 7.422 57.6941 4.462 63.7861C1.886 69.0871 1.683 70.4031 1.658 82.0001C1.632 94.0111 1.754 94.7551 4.788 101.013C10.515 112.829 21.259 121.828 36.127 127.26C46.941 131.212 54.546 132.218 79.627 133.019C105.767 133.854 109.871 134.554 116.061 139.236C119.019 141.474 122.591 146.606 123.553 150C126.157 159.192 124.366 160.118 145.007 138.908C169.585 113.652 173.145 108.564 175.244 95.6851C177.328 82.8961 172.638 71.0531 161.026 59.7891C150.435 49.5151 131.863 39.5281 124.627 40.2151C121.717 40.4911 121.825 40.6351 128.225 45.0001C140.406 53.3081 153.217 64.6361 157.625 70.9971C160.983 75.8431 164.131 85.0121 164.116 89.9051C164.096 96.6111 159.833 107.976 155.529 112.801L153.43 115.152L152.838 108.804C152.512 105.312 151.546 101.116 150.692 99.4781C149.838 97.8401 149.137 96.1381 149.133 95.6951C149.121 94.1121 140.875 82.7761 136.753 78.6771C132.121 74.0701 129.195 71.7241 124.524 68.8711L121.421 66.9761L123.742 62.2381C125.02 59.6321 126.079 56.6951 126.096 55.7101C126.139 53.2151 122.847 47.0961 119.466 43.3851C116.52 40.1531 110.769 36.6911 109.859 37.6021C109.571 37.8891 110.031 39.8911 110.879 42.0521C112.797 46.9331 111.725 51.4641 107.994 54.2501C104.621 56.7681 102.427 55.6791 98.288 49.4301C93.941 42.8661 92.609 35.5111 94.098 26.2831C94.75 22.2361 95.921 17.7041 96.7 16.2131C98.306 13.1341 98.569 10.0001 97.222 10.0001C95.089 10.0001 89.091 23.3941 87.818 31.0001C87.588 32.3751 87.338 31.3851 87.263 28.7991C87.061 21.8371 88.974 14.3181 92.761 7.17906C96.619 -0.0929422 96.593 5.78447e-05 94.719 5.78447e-05C93.944 5.78447e-05 91.357 1.98406 88.969 4.41006ZM32.94 11.2501C27.658 20.7001 26.549 31.0121 29.79 40.5231C31.621 45.8971 36.947 55.2931 40.306 59.0751C41.491 60.4091 43.398 62.5741 44.544 63.8861L46.627 66.2711L44.404 65.1151C41.817 63.7691 28.127 50.0811 28.127 48.8401C28.127 48.3781 27.677 48.0001 27.127 48.0001C23.673 48.0001 31.005 61.3011 37.203 66.2801C39.086 67.7931 41.118 69.4241 41.718 69.9061C44.878 72.4431 56.407 77.8221 61.862 79.3051C68.515 81.1141 80.127 81.6071 80.127 80.0821C80.127 79.5761 78.44 78.1401 76.377 76.8901C61.703 67.9951 46.584 51.9161 40.036 38.2421C37.138 32.1901 36.759 30.3481 36.341 20.2501C36.085 14.0631 35.498 9.00006 35.036 9.00006C34.575 9.00006 33.631 10.0121 32.94 11.2501ZM123.127 128.345C123.127 130.155 126.384 133 128.456 133C130.397 133 130.695 129.968 128.927 128.2C127.299 126.572 123.127 126.676 123.127 128.345ZM79.627 139.964C74.1 140.838 62.385 143.184 51.627 145.573C33.041 149.699 25.826 151.124 16.319 152.549C3.622 154.451 1.127 155.343 1.127 157.975C1.127 159.986 1.545 160 62.127 160C119.846 160 123.127 159.905 123.127 158.228C123.127 156.393 117.973 149.46 114.949 147.228C114.001 146.528 112.641 145.403 111.926 144.728C111.212 144.052 108.827 142.638 106.627 141.585C102.14 139.438 88.235 138.603 79.627 139.964ZM145.237 144.642C141.645 146.208 130.127 157.092 130.127 158.92C130.127 159.677 143.146 160 173.627 160C216.321 160 217.127 159.963 217.127 158.019C217.127 156.764 216.303 155.875 214.877 155.592C213.639 155.347 209.702 154.603 206.127 153.94C202.552 153.277 193.552 151.202 186.127 149.33C159.264 142.557 151.943 141.717 145.237 144.642ZM0.313999 167.25L0.626999 170.5L7.467 170.798C14.987 171.125 17.127 170.146 17.127 166.378C17.127 164.059 16.914 164 8.564 164H0L0.313999 167.25ZM18.127 166.184C18.127 169.511 14.317 176.662 11.105 179.365C9.528 180.692 8.513 182.053 8.849 182.389C9.185 182.725 11.913 183 14.91 183C19.899 183 20.308 183.169 19.744 185C19.404 186.1 18.85 187.9 18.51 189C16.977 193.972 28.094 189.712 31.44 184.046C33.241 180.997 36.127 170.257 36.127 166.606V164H27.127C18.541 164 18.127 164.1 18.127 166.184ZM37.794 164.667C37.427 165.033 37.127 166.608 37.127 168.167V171H80.627H124.127V167.5V164H81.294C57.735 164 38.16 164.3 37.794 164.667ZM129.511 165.442C129.207 166.234 129.114 167.697 129.306 168.692C129.635 170.398 132.109 170.515 173.391 170.761L217.127 171.021V167.511V164H173.596C136.607 164 129.981 164.217 129.511 165.442ZM26.489 169.5C26.109 170.49 26.545 171.027 27.77 171.079C29.196 171.14 29.279 171.293 28.127 171.741C27.302 172.062 26.028 173.039 25.295 173.912C24.095 175.344 24.018 175.328 24.514 173.75C24.887 172.563 24.512 171.975 23.346 171.921C21.96 171.857 21.918 171.732 23.127 171.274C23.952 170.962 24.987 170.098 25.427 169.353C26.502 167.534 27.206 167.631 26.489 169.5Z" fill="white"/>
<path id="Layer 2" fill-rule="evenodd" clip-rule="evenodd" d="M88.969 4.41006C83.251 10.2171 82.87 10.7341 80.435 16.0001C76.573 24.3531 76.127 26.0771 76.127 32.6541C76.127 45.5171 83.606 56.0541 100.315 66.7321C129.249 85.2221 136.514 92.6081 140.308 107.392C141.936 113.739 142.071 113.965 141.565 109.5C140.71 101.951 136.19 93.2511 130.02 87.2801C123.619 81.0851 118.166 77.0561 102.568 67.0001C84.598 55.4141 78.049 46.8161 77.296 33.8191C76.746 24.3181 80.766 14.3921 88.495 6.16806C93.987 0.325061 95.219 0.475061 91.911 6.58206C90.262 9.62706 89.126 12.3321 89.386 12.5931C89.755 12.9621 93.84 5.61106 95.96 0.762061C96.144 0.343061 95.622 6.10352e-05 94.802 6.10352e-05C93.982 6.10352e-05 91.357 1.98406 88.969 4.41006ZM32.94 11.2501C27.658 20.7001 26.549 31.0121 29.79 40.5231C31.521 45.6051 36.889 55.2211 39.89 58.6161C44.668 64.0231 45.354 65.0001 44.37 65.0001C43.784 65.0001 39.823 61.5131 35.569 57.2501C31.315 52.9871 28.326 50.4391 28.928 51.5861C31.566 56.6171 51.127 72.3431 51.127 69.4341C51.127 69.1001 48.507 66.1411 45.305 62.8591C31.244 48.4441 25.785 31.3051 30.936 17.7421C34.104 9.39806 34.816 9.95406 35.341 21.1841C35.751 29.9541 36.282 32.5021 38.884 38.1871C40.568 41.8661 43.371 46.9481 45.114 49.4811C49.722 56.1781 60.977 67.1041 70.37 73.9991L78.546 80.0001H73.565C68.454 80.0001 58.532 77.5381 51.877 74.6181C49.815 73.7131 48.127 73.2021 48.127 73.4811C48.127 74.3261 56.261 77.7391 62.281 79.4201C68.413 81.1341 80.127 81.5681 80.127 80.0821C80.127 79.5761 78.44 78.1401 76.377 76.8901C61.703 67.9951 46.584 51.9161 40.036 38.2421C37.138 32.1901 36.759 30.3481 36.341 20.2501C36.085 14.0631 35.498 9.00006 35.036 9.00006C34.575 9.00006 33.631 10.0121 32.94 11.2501ZM93.85 14.2501C92.493 16.5871 91.077 19.6251 90.704 21.0001C90.33 22.3751 91.207 21.2501 92.652 18.5001C95.781 12.5461 97.712 10.2831 96.162 14.3891C95.562 15.9771 95.296 17.5021 95.571 17.7771C96.164 18.3701 98.127 13.4981 98.127 11.4351C98.127 8.78706 96.337 9.96506 93.85 14.2501ZM87.096 19.6501C85.843 25.6841 86.371 35.8811 88.089 38.8251C88.835 40.1041 89.073 39.4811 89.097 36.1911C89.115 33.5661 88.736 32.1241 88.127 32.5001C86.819 33.3081 86.857 24.8851 88.186 19.1181C88.742 16.7081 88.995 14.5351 88.749 14.2891C88.503 14.0431 87.759 16.4551 87.096 19.6501ZM93.239 25.2771C92.627 28.7901 92.173 32.7521 92.229 34.0821C92.285 35.4121 92.964 32.7171 93.739 28.0941C94.514 23.4701 94.969 19.5081 94.75 19.2891C94.531 19.0701 93.851 21.7651 93.239 25.2771ZM88.627 27.0001C88.247 28.7291 88.145 30.3511 88.4 30.6061C88.655 30.8611 89.151 29.6321 89.502 27.8751C90.336 23.7071 89.528 22.8991 88.627 27.0001ZM93.142 39.0831C93.151 40.4131 93.6 42.1751 94.141 43.0001C94.833 44.0551 94.934 43.4621 94.482 41.0001C93.691 36.6871 93.122 35.8741 93.142 39.0831ZM110.818 41.8031C112.879 46.7351 111.794 51.3331 107.84 54.4281C105.295 56.4201 105.081 56.8241 106.812 56.3721C108.014 56.0581 109.757 54.9611 110.686 53.9351C112.537 51.8891 113.139 44.9151 111.787 41.1781C110.963 38.9031 111.004 38.8861 113.787 40.3381C120.24 43.7081 125.712 52.2381 124.726 57.3881C124.298 59.6231 124.407 60.0771 125.113 59.0001C126.591 56.7461 126.337 54.3311 124.176 50.0971C122.289 46.3971 115.958 39.1321 114.395 38.8721C109.323 38.0291 109.262 38.0791 110.818 41.8031ZM122.677 40.9341C123.199 41.4471 126.145 43.5851 129.222 45.6841C140.431 53.3281 153.381 64.8731 157.637 71.0151C159.166 73.2211 161.251 77.3831 162.269 80.2631C163.605 84.0401 163.948 84.5241 163.501 82.0001C161.874 72.8221 151.712 61.0851 133.627 47.4981C127.343 42.7771 125.469 40.9361 127.418 41.3981C141.194 44.6611 157.59 55.5161 166.349 67.1731C170.708 72.9741 172.673 76.8661 174.088 82.5001L175.093 86.5001L174.567 82.0571C172.96 68.4661 154.63 50.5351 134.134 42.5031C127.822 40.0291 120.775 39.0641 122.677 40.9341ZM95.127 45.4261C95.127 47.8231 101.544 56.0001 103.425 56.0001C103.933 56.0001 103.43 55.2121 102.308 54.2501C101.185 53.2881 99.11 50.7501 97.697 48.6101C96.283 46.4711 95.127 45.0381 95.127 45.4261ZM26.127 49.8451C26.127 52.5461 33.234 63.0921 37.203 66.2801C39.086 67.7931 41.105 69.4121 41.69 69.8801C42.275 70.3471 43.85 71.2651 45.19 71.9201C47.1 72.8531 46.978 72.6141 44.627 70.8151C34.896 63.3691 27.877 54.8631 27.877 50.5161C27.877 49.1321 27.483 48.0001 27.002 48.0001C26.521 48.0001 26.127 48.8301 26.127 49.8451ZM11.823 54.0361C7.01701 58.2661 2.04202 67.1751 2.24302 71.1881C2.34402 73.2031 2.41601 73.2431 2.80301 71.5001C4.59201 63.4441 9.08501 56.4251 14.658 52.9811C18.945 50.3311 19.735 50.8181 18.215 55.1761C17.542 57.1071 17.487 58.0401 18.081 57.4461C18.636 56.8911 19.379 54.9891 19.733 53.2191C20.285 50.4591 20.094 50.0001 18.393 50.0001C17.301 50.0001 14.345 51.8161 11.823 54.0361ZM16.768 61.2101C16.43 62.4701 16.204 65.0751 16.265 67.0001C16.35 69.6721 16.565 69.2001 17.172 65.0041C18.009 59.2291 17.807 57.3321 16.768 61.2101ZM121.484 63.9111L119.34 66.5591L126.347 71.5131C134.893 77.5561 141.877 85.0461 146.658 93.2951C148.636 96.7081 149.937 98.3751 149.55 97.0001C147.369 89.2591 134.759 75.1161 124.407 68.8021C121.286 66.8981 121.236 66.7631 122.793 64.3881C125.006 61.0091 124.1 60.6791 121.484 63.9111ZM15.413 75.5001C15.421 78.2501 15.615 79.2561 15.845 77.7361C16.074 76.2161 16.068 73.9661 15.831 72.7361C15.594 71.5061 15.406 72.7501 15.413 75.5001ZM1.28502 76.0001C1.28502 77.3751 1.51201 77.9381 1.78901 77.2501C2.06701 76.5631 2.06701 75.4381 1.78901 74.7501C1.51201 74.0631 1.28502 74.6251 1.28502 76.0001ZM1.32201 82.5001C1.34201 84.1501 1.56601 84.7041 1.82001 83.7311C2.07401 82.7581 2.05701 81.4081 1.78301 80.7311C1.50901 80.0541 1.30201 80.8501 1.32201 82.5001ZM16.142 83.5831C16.151 85.1881 16.588 87.1751 17.114 88.0001C17.765 89.0211 17.875 88.2241 17.457 85.5001C16.699 80.5571 16.122 79.7151 16.142 83.5831ZM164.399 90.0001C164.399 92.4751 164.594 93.4871 164.833 92.2501C165.071 91.0131 165.071 88.9871 164.833 87.7501C164.594 86.5131 164.399 87.5251 164.399 90.0001ZM1.78901 91.0001C2.94301 100.133 9.97701 111.321 18.952 118.3C28.194 125.486 45.03 131.164 60.627 132.355L67.627 132.889L59.127 131.575C26.525 126.535 8.32901 113.652 2.52901 91.5001L1.22001 86.5001L1.78901 91.0001ZM175.359 90.0001C175.359 91.9251 175.565 92.7131 175.816 91.7501C176.068 90.7871 176.068 89.2131 175.816 88.2501C175.565 87.2871 175.359 88.0751 175.359 90.0001ZM20.063 95.5691C25.143 104.612 28.597 108.487 35.403 112.775C41.432 116.572 48.802 119.658 49.7 118.76C49.942 118.518 48.243 117.752 45.925 117.058C36.474 114.226 25.562 104.711 21.253 95.5451C20.119 93.1321 18.637 90.8151 17.961 90.3971C17.285 89.9801 18.231 92.3071 20.063 95.5691ZM174.277 96.6721C174.194 98.4171 172.225 103.554 169.9 108.089C166.266 115.177 163.511 118.52 150.262 131.917C141.786 140.488 133.284 149.412 131.369 151.75C129.453 154.088 127.522 156 127.077 156C126.633 156 125.539 153.491 124.648 150.424C122.572 143.281 116.593 137.049 109.614 134.751C103.187 132.635 102.586 133.259 108.816 135.581C116.498 138.444 121.729 143.562 123.553 150C126.157 159.192 124.366 160.118 145.007 138.909C155.248 128.386 165.285 117.444 167.311 114.593C171.841 108.219 175.364 99.5441 174.827 96.0851C174.476 93.8211 174.408 93.8941 174.277 96.6721ZM162.624 98.1781C161.687 102.669 158.125 109.949 155.377 112.99C153.017 115.601 152.35 117.598 154.225 116.44C157.588 114.361 165.477 97.0171 163.815 95.3541C163.541 95.0811 163.005 96.3521 162.624 98.1781ZM150.719 102.5C152.302 108.979 153.088 110.521 152.503 106C152.183 103.525 151.486 101.05 150.953 100.5C150.327 99.8531 150.244 100.559 150.719 102.5ZM52.967 120.017C54.254 120.559 59.204 121.203 63.967 121.448L72.627 121.895L65.29 121.042C61.254 120.573 56.304 119.929 54.29 119.611C51.28 119.136 51.044 119.208 52.967 120.017ZM140.715 124.25C139.98 128.922 136.414 136.403 132.104 142.313C129.124 146.401 128.989 146.363 127.239 140.928C124.463 132.304 111.256 124.832 96.627 123.609L90.627 123.107L97.627 124.456C107.13 126.287 111.148 127.594 116.535 130.604C121.935 133.622 124.394 136.514 126.702 142.558C127.635 145.001 128.766 147 129.215 147C130.272 147 135.149 139.874 138.454 133.5C140.817 128.942 143.088 120 141.883 120C141.608 120 141.082 121.912 140.715 124.25ZM75.391 122.718C76.911 122.947 79.161 122.941 80.391 122.704C81.621 122.467 80.377 122.279 77.627 122.286C74.877 122.294 73.871 122.488 75.391 122.718ZM85.377 123.689C86.34 123.941 87.914 123.941 88.877 123.689C89.84 123.438 89.052 123.232 87.127 123.232C85.202 123.232 84.414 123.438 85.377 123.689ZM123.127 128.345C123.127 130.155 126.384 133 128.456 133C130.397 133 130.695 129.968 128.927 128.2C127.299 126.572 123.127 126.676 123.127 128.345ZM128.127 128.418C128.127 128.648 128.4 129.548 128.734 130.418C129.642 132.784 126.417 132.41 125.127 130C124.22 128.305 124.367 128 126.092 128C127.211 128 128.127 128.188 128.127 128.418ZM75.423 132.744C79.71 132.932 86.46 132.931 90.423 132.742C94.385 132.552 90.877 132.399 82.627 132.4C74.377 132.401 71.135 132.556 75.423 132.744ZM99.396 133.693C100.369 133.947 101.719 133.93 102.396 133.656C103.073 133.382 102.277 133.175 100.627 133.195C98.977 133.215 98.423 133.439 99.396 133.693ZM78.838 140.003C75.655 140.411 72.765 141.029 72.417 141.376C71.801 141.993 74.32 141.761 86.627 140.069C91.156 139.446 91.646 139.246 88.627 139.253C86.427 139.258 82.022 139.596 78.838 140.003ZM99.627 140.315C105.333 141.814 108.233 143.21 112.945 146.729C116.249 149.195 122.127 156.517 122.127 158.165C122.127 158.646 95.218 158.913 61.627 158.765C28.352 158.619 1.12701 158.838 1.12701 159.25C1.12701 159.662 28.577 160 62.127 160C119.846 160 123.127 159.905 123.127 158.228C123.127 156.393 117.973 149.46 114.949 147.228C114.001 146.528 112.641 145.403 111.926 144.728C109.674 142.6 103.262 140.039 98.863 139.511C94.681 139.009 94.691 139.019 99.627 140.315ZM65.627 142.472C64.782 142.738 54.929 144.845 46.259 146.614C44.957 146.88 44.102 147.308 44.36 147.566C44.618 147.824 48.158 147.302 52.228 146.406C56.297 145.509 62.327 144.205 65.627 143.507C68.927 142.809 70.502 142.22 69.127 142.198C67.752 142.176 66.177 142.299 65.627 142.472ZM145.237 144.642C143.373 145.455 139.21 148.757 135.987 151.98C130.404 157.563 128.927 160 131.127 160C131.677 160 132.127 159.337 132.127 158.526C132.127 156.085 141.048 147.945 146.512 145.401C152.001 142.845 150.883 142.179 145.237 144.642ZM152.94 143.683C153.661 143.972 154.524 143.936 154.856 143.604C155.188 143.272 154.598 143.036 153.544 143.079C152.379 143.127 152.142 143.364 152.94 143.683ZM161.127 144.499C164.152 145.23 166.782 145.675 166.971 145.487C167.503 144.958 159.874 143.001 157.627 143.091C156.527 143.134 158.102 143.768 161.127 144.499ZM168.228 145.401C168.935 146.147 179.127 148.885 179.127 148.329C179.127 148.121 178.115 147.569 176.877 147.103C173.559 145.852 167.533 144.667 168.228 145.401ZM33.127 149.592C29.552 150.359 23.992 151.413 20.771 151.933C17.551 152.453 14.661 153.132 14.35 153.443C13.527 154.266 22.738 152.974 29.087 151.375C32.09 150.619 35.465 149.993 36.587 149.985C37.709 149.976 39.302 149.533 40.127 149C42.001 147.789 41.212 147.856 33.127 149.592ZM180.285 148.45C181.205 149.428 195.129 152.813 194.581 151.925C194.335 151.527 191.769 150.666 188.88 150.013C185.991 149.36 182.727 148.584 181.627 148.288C180.527 147.993 179.923 148.066 180.285 148.45ZM197.127 152.796C197.952 153.287 202.002 154.246 206.127 154.927C210.252 155.608 214.415 156.582 215.377 157.091C216.488 157.679 217.127 157.656 217.127 157.028C217.127 155.997 216.752 155.892 206.127 153.97C202.552 153.323 198.727 152.594 197.627 152.349C196.091 152.008 195.975 152.112 197.127 152.796ZM10.94 153.683C11.661 153.972 12.524 153.936 12.856 153.604C13.188 153.272 12.598 153.036 11.544 153.079C10.379 153.127 10.142 153.364 10.94 153.683ZM3.37701 155.031C0.194014 156.31 0.576014 157.07 3.87701 156.026C9.51801 154.243 9.68601 154.158 7.62701 154.142C6.52701 154.134 4.61401 154.534 3.37701 155.031ZM0.377014 167.25L0.627014 170.5L7.46701 170.798C11.649 170.98 14.855 170.641 15.717 169.925C16.822 169.008 17.127 169.074 17.127 170.228C17.127 172.126 11.491 179.923 9.59301 180.652C6.66801 181.774 9.38801 183 14.803 183C19.899 183 20.309 183.166 19.744 185C18.207 189.984 18.135 191.439 19.571 188.5C22.321 182.871 21.777 182 15.511 182H9.89401L13.517 177.99C15.537 175.754 17.671 171.994 18.341 169.49L19.542 165H27.334C36.04 165 36.326 165.333 34.144 172.939C33.483 175.244 33.492 176.035 34.171 175.356C34.726 174.801 35.456 172.019 35.793 169.173L36.406 164H27.333H18.26L17.843 166.75L17.427 169.5L17.277 166.75C17.194 165.238 16.772 164 16.338 164C15.903 164 15.566 165.238 15.588 166.75C15.627 169.472 15.553 169.503 8.44402 169.792L1.26001 170.085L0.694016 167.042L0.127014 164L0.377014 167.25ZM37.794 164.667C37.427 165.033 37.127 166.608 37.127 168.167V171H80.627C104.552 171 124.127 170.662 124.127 170.25C124.127 169.838 104.719 169.622 80.998 169.771L37.869 170.042L38.473 167.021C39.091 163.931 38.965 163.495 37.794 164.667ZM129.511 165.442C129.207 166.234 129.114 167.697 129.306 168.692C129.635 170.403 132.012 170.501 173.641 170.521L217.627 170.543L174.127 170.021L130.627 169.5L130.666 166.75C130.71 163.692 130.342 163.275 129.511 165.442ZM25.127 168.059C25.127 168.641 25.653 168.793 26.297 168.395C27.084 167.909 27.258 168.217 26.828 169.336C26.389 170.48 26.727 171.022 27.908 171.07C29.342 171.129 29.295 171.283 27.627 172C25.719 172.82 25.73 172.863 27.877 172.93C29.242 172.972 30.127 172.41 30.127 171.5C30.127 170.675 29.677 170 29.127 170C28.577 170 28.127 169.325 28.127 168.5C28.127 167.675 27.452 167 26.627 167C25.802 167 25.127 167.477 25.127 168.059ZM21.127 171.5C21.127 172.325 21.525 173 22.01 173C22.496 173 23.106 174.111 23.366 175.47C23.626 176.828 23.453 177.702 22.983 177.411C22.512 177.12 22.127 177.359 22.127 177.941C22.127 178.523 22.802 179 23.627 179C24.452 179 25.127 178.587 25.127 178.082C25.127 177.577 25.428 176.378 25.797 175.418C26.293 174.126 26.119 173.887 25.127 174.5C24.148 175.105 23.959 174.88 24.426 173.664C24.865 172.52 24.527 171.978 23.346 171.93C21.912 171.871 21.959 171.717 23.627 171C25.535 170.18 25.524 170.137 23.377 170.07C22.012 170.028 21.127 170.59 21.127 171.5ZM32.587 179.175C31.451 182.831 28.132 187.026 24.738 189.095C23.027 190.139 22.049 190.994 22.565 190.996C24.942 191.006 30.357 186.089 32.256 182.198C33.411 179.832 34.121 177.66 33.833 177.372C33.545 177.085 32.984 177.896 32.587 179.175Z" fill="#DCDCDC"/>
<path id="Layer 3" fill-rule="evenodd" clip-rule="evenodd" d="M91.686 1.53206C90.618 2.33906 90.254 3.00006 90.877 3.00006C91.5 3.00006 92.306 2.51906 92.669 1.93206C93.032 1.34406 93.959 1.10506 94.728 1.40006C95.498 1.69606 96.127 1.50106 96.127 0.969056C96.127 -0.439945 93.924 -0.160944 91.686 1.53206ZM84.691 8.70706C84.149 10.1321 84.263 10.2471 85.251 9.26706C85.935 8.58806 86.242 7.78106 85.934 7.47406C85.626 7.16606 85.067 7.72106 84.691 8.70706ZM33.532 10.1551C33.107 10.8411 33.255 11.0391 33.897 10.6421C34.49 10.2761 35.182 10.7691 35.435 11.7381C35.785 13.0791 35.923 12.9621 36.011 11.2501C36.134 8.85806 34.719 8.23305 33.532 10.1551ZM89.691 11.7071C89.149 13.1321 89.263 13.2471 90.251 12.2671C90.935 11.5881 91.242 10.7811 90.934 10.4741C90.626 10.1661 90.067 10.7211 89.691 11.7071ZM95.127 12.0001C94.538 13.1001 94.282 14.0001 94.557 14.0001C94.832 14.0001 95.538 13.1001 96.127 12.0001C96.716 10.9001 96.972 10.0001 96.697 10.0001C96.422 10.0001 95.716 10.9001 95.127 12.0001ZM31.586 13.0671C31.223 13.6531 31.141 14.3481 31.403 14.6101C31.665 14.8721 32.146 14.3921 32.472 13.5431C33.148 11.7811 32.572 11.4711 31.586 13.0671ZM96.295 14.9491C95.71 16.6271 95.444 18.0001 95.704 18.0001C96.379 18.0001 98.266 12.8051 97.771 12.3101C97.544 12.0831 96.88 13.2711 96.295 14.9491ZM35.413 19.5001C35.421 22.2501 35.615 23.2561 35.845 21.7361C36.074 20.2161 36.068 17.9661 35.831 16.7361C35.594 15.5061 35.406 16.7501 35.413 19.5001ZM92.127 17.0001C91.538 18.1001 91.282 19.0001 91.557 19.0001C91.832 19.0001 92.538 18.1001 93.127 17.0001C93.716 15.9001 93.972 15.0001 93.697 15.0001C93.422 15.0001 92.716 15.9001 92.127 17.0001ZM79.081 18.0861C78.467 19.2331 78.153 20.3601 78.384 20.5901C78.614 20.8201 79.316 19.8821 79.943 18.5041C81.321 15.4801 80.65 15.1541 79.081 18.0861ZM28.751 19.5391C27.786 22.0531 28.07 22.7021 29.249 20.6751C29.833 19.6711 30.1 18.6391 29.842 18.3821C29.585 18.1241 29.093 18.6451 28.751 19.5391ZM87.206 20.5831C87.254 21.7481 87.491 21.9851 87.81 21.1881C88.099 20.4661 88.063 19.6031 87.731 19.2711C87.399 18.9391 87.163 19.5291 87.206 20.5831ZM86.413 27.5001C86.421 30.2501 86.615 31.2561 86.845 29.7361C87.074 28.2161 87.068 25.9661 86.831 24.7361C86.594 23.5061 86.406 24.7501 86.413 27.5001ZM88.698 26.5711C88.331 28.0371 88.223 29.4291 88.458 29.6651C88.694 29.9001 89.188 28.8941 89.556 27.4291C89.923 25.9631 90.031 24.5711 89.796 24.3351C89.56 24.1001 89.066 25.1061 88.698 26.5711ZM35.158 26.5001C35.158 27.0501 35.594 28.1751 36.127 29.0001C36.66 29.8251 37.096 30.0501 37.096 29.5001C37.096 28.9501 36.66 27.8251 36.127 27.0001C35.594 26.1751 35.158 25.9501 35.158 26.5001ZM93.206 27.5831C93.254 28.7481 93.491 28.9851 93.81 28.1881C94.099 27.4661 94.063 26.6031 93.731 26.2711C93.399 25.9391 93.163 26.5291 93.206 27.5831ZM76.379 32.5001C76.39 34.7001 76.595 35.4821 76.834 34.2381C77.073 32.9941 77.064 31.1941 76.814 30.2381C76.564 29.2821 76.368 30.3001 76.379 32.5001ZM28.285 32.0001C28.285 33.3751 28.512 33.9381 28.789 33.2501C29.067 32.5631 29.067 31.4381 28.789 30.7501C28.512 30.0631 28.285 30.6251 28.285 32.0001ZM92.285 33.0001C92.285 34.3751 92.512 34.9381 92.789 34.2501C93.067 33.5631 93.067 32.4381 92.789 31.7501C92.512 31.0631 92.285 31.6251 92.285 33.0001ZM87.206 34.5831C87.254 35.7481 87.491 35.9851 87.81 35.1881C88.099 34.4661 88.063 33.6031 87.731 33.2711C87.399 32.9391 87.163 33.5291 87.206 34.5831ZM38.158 35.5001C38.158 36.0501 38.594 37.1751 39.127 38.0001C39.66 38.8251 40.096 39.0501 40.096 38.5001C40.096 37.9501 39.66 36.8251 39.127 36.0001C38.594 35.1751 38.158 34.9501 38.158 35.5001ZM76.213 38.0001C76.182 38.8251 76.594 40.1751 77.127 41.0001C78.308 42.8281 78.308 41.2491 77.127 38.5001C76.56 37.1811 76.249 37.0111 76.213 38.0001ZM93.206 38.5831C93.254 39.7481 93.491 39.9851 93.81 39.1881C94.099 38.4661 94.063 37.6031 93.731 37.2711C93.399 36.9391 93.163 37.5291 93.206 38.5831ZM114.86 40.1241C115.539 40.8081 116.346 41.1151 116.653 40.8071C116.961 40.4991 116.406 39.9401 115.42 39.5641C113.995 39.0221 113.88 39.1361 114.86 40.1241ZM111.13 42.4901C112.692 46.6241 111.549 51.5231 108.455 53.9571C107.026 55.0811 106.29 56.0001 106.818 56.0001C107.346 56.0001 108.869 54.8391 110.203 53.4191C112.95 50.4951 113.604 43.0681 111.314 40.8001C110.231 39.7271 110.199 40.0231 111.13 42.4901ZM122.127 40.4091C122.127 40.5991 122.802 41.3151 123.627 42.0001C124.492 42.7181 125.127 42.8151 125.127 42.2291C125.127 41.6711 124.452 40.9551 123.627 40.6381C122.802 40.3221 122.127 40.2191 122.127 40.4091ZM128.127 41.0001C128.952 41.5331 130.077 41.9691 130.627 41.9691C131.177 41.9691 130.952 41.5331 130.127 41.0001C129.302 40.4671 128.177 40.0311 127.627 40.0311C127.077 40.0311 127.302 40.4671 128.127 41.0001ZM30.672 43.2501C31.046 44.4871 31.763 45.9401 32.267 46.4771C32.77 47.0151 32.675 46.0021 32.056 44.2271C30.79 40.5941 29.62 39.7691 30.672 43.2501ZM93.691 42.2931C94.067 43.2791 94.626 43.8341 94.934 43.5261C95.242 43.2191 94.935 42.4121 94.251 41.7331C93.263 40.7531 93.149 40.8681 93.691 42.2931ZM42.127 44.0001C42.716 45.1001 43.422 46.0001 43.697 46.0001C43.972 46.0001 43.716 45.1001 43.127 44.0001C42.538 42.9001 41.832 42.0001 41.557 42.0001C41.282 42.0001 41.538 42.9001 42.127 44.0001ZM136.86 44.1241C137.539 44.8081 138.346 45.1151 138.653 44.8071C138.961 44.4991 138.406 43.9401 137.42 43.5641C135.995 43.0221 135.88 43.1361 136.86 44.1241ZM80.279 48.0571C81.533 50.2881 83.169 52.6201 83.915 53.2391C84.661 53.8581 83.821 52.0321 82.049 49.1821C78.228 43.0351 77.028 42.2721 80.279 48.0571ZM128.127 44.3781C128.127 44.5851 128.914 45.3731 129.877 46.1281C131.463 47.3711 131.498 47.3361 130.255 45.7501C128.948 44.0841 128.127 43.5551 128.127 44.3781ZM95.127 45.5571C95.127 46.5111 100.179 54.0001 100.822 54.0001C101.301 54.0001 100.694 52.9491 97.42 48.1101C96.159 46.2461 95.127 45.0971 95.127 45.5571ZM142.127 46.4301C142.127 46.7051 143.027 47.4111 144.127 48.0001C145.227 48.5891 146.127 48.8451 146.127 48.5701C146.127 48.2951 145.227 47.5891 144.127 47.0001C143.027 46.4111 142.127 46.1551 142.127 46.4301ZM147.127 49.3111C147.127 49.5441 149.039 50.9961 151.377 52.5371C153.715 54.0791 155.099 54.7011 154.454 53.9201C153.213 52.4181 147.127 48.5891 147.127 49.3111ZM15.716 50.8561C15.425 51.3261 16.299 51.4991 17.657 51.2391C19.016 50.9791 20.127 50.5941 20.127 50.3831C20.127 49.6101 16.228 50.0271 15.716 50.8561ZM28.127 50.3131C28.127 50.4851 29.59 51.9481 31.377 53.5631L34.627 56.5001L31.69 53.2501C28.952 50.2211 28.127 49.5401 28.127 50.3131ZM47.627 52.0001C48.622 53.1001 49.662 54.0001 49.937 54.0001C50.212 54.0001 49.622 53.1001 48.627 52.0001C47.632 50.9001 46.592 50.0001 46.317 50.0001C46.042 50.0001 46.632 50.9001 47.627 52.0001ZM136.127 50.3781C136.127 50.5851 136.914 51.3731 137.877 52.1281C139.463 53.3711 139.498 53.3361 138.255 51.7501C136.948 50.0841 136.127 49.5551 136.127 50.3781ZM124.772 54.0001C125.563 58.3131 126.132 59.1261 126.112 55.9171C126.103 54.5871 125.654 52.8251 125.113 52.0001C124.421 50.9451 124.32 51.5381 124.772 54.0001ZM10.073 55.7501L6.627 59.5001L10.377 56.0541C12.44 54.1581 14.127 52.4711 14.127 52.3041C14.127 51.5401 13.281 52.2601 10.073 55.7501ZM18.751 53.5391C18.408 54.4321 18.156 55.6891 18.19 56.3321C18.225 56.9741 18.685 56.4221 19.212 55.1051C19.739 53.7871 19.991 52.5311 19.772 52.3121C19.553 52.0931 19.093 52.6451 18.751 53.5391ZM28.127 55.0001C28.716 56.1001 29.422 57.0001 29.697 57.0001C29.972 57.0001 29.716 56.1001 29.127 55.0001C28.538 53.9001 27.832 53.0001 27.557 53.0001C27.282 53.0001 27.538 53.9001 28.127 55.0001ZM140.127 53.7591C140.127 54.1771 141.139 55.1411 142.377 55.9011C144.619 57.2781 144.62 57.2761 142.722 55.1421C140.684 52.8501 140.127 52.5541 140.127 53.7591ZM37.127 55.3781C37.127 55.5851 37.914 56.3731 38.877 57.1281C40.463 58.3711 40.498 58.3361 39.255 56.7501C37.948 55.0841 37.127 54.5551 37.127 55.3781ZM55.84 60.9921C59.258 64.5201 62.196 67.2031 62.371 66.9531C62.545 66.7041 59.749 63.8171 56.158 60.5381L49.627 54.5761L55.84 60.9921ZM161.085 60.2501C163.537 62.8621 165.675 65.0001 165.835 65.0001C166.586 65.0001 165.792 64.1021 161.377 59.9581L156.627 55.5001L161.085 60.2501ZM88.158 57.7501C88.176 58.1631 89.413 59.3641 90.908 60.4201L93.627 62.3391L91.203 59.6701C88.655 56.8641 88.107 56.5191 88.158 57.7501ZM31.577 59.9611C33.326 62.7941 37.606 67.1621 39.627 68.1751C40.727 68.7261 40.343 68.1081 38.775 66.8011C37.206 65.4951 34.731 63.0751 33.275 61.4241C31.818 59.7731 31.054 59.1151 31.577 59.9611ZM151.085 63.2501C153.537 65.8621 155.675 68.0001 155.835 68.0001C156.586 68.0001 155.792 67.1021 151.377 62.9581L146.627 58.5001L151.085 63.2501ZM37.21 60.2501C37.44 60.3881 38.977 61.6251 40.627 63.0001L43.627 65.5001L41.203 62.7501C39.869 61.2371 38.332 60.0001 37.786 60.0001C37.24 60.0001 36.981 60.1121 37.21 60.2501ZM43.722 63.1051C44.77 64.2631 45.627 65.5001 45.627 65.8551C45.627 66.2101 45.965 66.3881 46.377 66.2501C46.789 66.1121 47.127 66.4021 47.127 66.8931C47.127 67.3841 47.914 68.0861 48.877 68.4521C49.84 68.8181 48.848 67.2911 46.674 65.0591C42.586 60.8621 40.356 59.3861 43.722 63.1051ZM121.753 64.4481C120.739 65.9961 120.522 67.1261 121.163 67.5221C121.72 67.8671 122.07 67.7781 121.939 67.3241C121.809 66.8711 122.264 65.4871 122.95 64.2501C124.621 61.2351 123.765 61.3771 121.753 64.4481ZM95.127 63.4301C95.127 63.7051 96.027 64.4111 97.127 65.0001C98.227 65.5891 99.127 65.8451 99.127 65.5701C99.127 65.2951 98.227 64.5891 97.127 64.0001C96.027 63.4111 95.127 63.1551 95.127 63.4301ZM2.751 67.5391C1.786 70.0531 2.07 70.7021 3.249 68.6751C3.833 67.6711 4.1 66.6391 3.842 66.3821C3.585 66.1241 3.093 66.6451 2.751 67.5391ZM16.285 68.0001C16.285 69.3751 16.512 69.9381 16.789 69.2501C17.067 68.5631 17.067 67.4381 16.789 66.7501C16.512 66.0631 16.285 66.6251 16.285 68.0001ZM100.127 66.3111C100.127 66.5441 102.039 67.9961 104.377 69.5371C106.715 71.0791 108.099 71.7011 107.454 70.9201C106.213 69.4181 100.127 65.5891 100.127 66.3111ZM166.127 66.3781C166.127 66.5851 166.914 67.3731 167.877 68.1281C169.463 69.3711 169.498 69.3361 168.255 67.7501C166.948 66.0841 166.127 65.5551 166.127 66.3781ZM64.127 68.3321C64.127 68.6071 65.927 70.2581 68.127 72.0001C70.327 73.7421 72.127 74.9431 72.127 74.6681C72.127 74.3931 70.327 72.7421 68.127 71.0001C65.927 69.2581 64.127 68.0571 64.127 68.3321ZM125.127 69.8931C125.127 70.3841 125.866 71.0691 126.768 71.4161C128.141 71.9431 128.203 71.7961 127.146 70.5231C125.706 68.7881 125.127 68.6071 125.127 69.8931ZM156.127 69.3781C156.127 69.5851 156.914 70.3731 157.877 71.1281C159.463 72.3711 159.498 72.3361 158.255 70.7501C156.948 69.0841 156.127 68.5551 156.127 69.3781ZM42.127 70.3931C42.127 70.6091 42.825 71.0541 43.679 71.3821C44.569 71.7231 44.97 71.5551 44.62 70.9891C44.033 70.0381 42.127 69.5831 42.127 70.3931ZM15.322 75.5001C15.342 77.1501 15.566 77.7041 15.82 76.7311C16.074 75.7581 16.057 74.4081 15.783 73.7311C15.509 73.0541 15.302 73.8501 15.322 75.5001ZM159.691 74.2931C160.067 75.2791 160.626 75.8341 160.934 75.5261C161.242 75.2191 160.935 74.4121 160.251 73.7331C159.263 72.7531 159.149 72.8681 159.691 74.2931ZM1.206 75.5831C1.254 76.7481 1.491 76.9851 1.81 76.1881C2.099 75.4661 2.063 74.6031 1.731 74.2711C1.399 73.9391 1.163 74.5291 1.206 75.5831ZM74.627 76.423C75.727 77.311 77.465 78.7431 78.489 79.6051C79.513 80.4671 80.18 80.6601 79.972 80.0351C79.763 79.4091 78.026 77.9781 76.11 76.8531C74.194 75.7291 73.527 75.535 74.627 76.423ZM114.127 75.3781C114.127 75.5851 114.914 76.3731 115.877 77.1281C117.463 78.3711 117.498 78.3361 116.255 76.7501C114.948 75.0841 114.127 74.5551 114.127 75.3781ZM133.127 75.3131C133.127 75.4851 134.59 76.9481 136.377 78.5631L139.627 81.5001L136.69 78.2501C133.952 75.2211 133.127 74.5401 133.127 75.3131ZM172.127 75.9411C172.127 76.4591 172.572 77.157 173.116 77.493C173.682 77.843 173.85 77.4421 173.509 76.5521C172.844 74.8201 172.127 74.5031 172.127 75.9411ZM54.86 77.1241C55.539 77.8081 56.346 78.1151 56.653 77.8071C56.961 77.4991 56.406 76.9401 55.42 76.5641C53.995 76.0221 53.88 76.1361 54.86 77.1241ZM118.127 78.3131C118.127 78.5601 119.779 80.0231 121.798 81.5631C123.817 83.1031 125.154 83.8521 124.768 83.2281C123.977 81.9481 118.127 77.6191 118.127 78.3131ZM64.627 80.0001C65.727 80.4731 67.527 80.8461 68.627 80.8301C70.235 80.8061 70.137 80.6441 68.127 80.0001C64.708 78.9051 62.079 78.9051 64.627 80.0001ZM73.396 80.6931C74.369 80.9471 75.719 80.9301 76.396 80.6561C77.073 80.3821 76.277 80.1751 74.627 80.1951C72.977 80.2151 72.423 80.4391 73.396 80.6931ZM162.213 80.5001C162.317 82.3941 163.983 85.5841 164.041 84.0001C164.072 83.1751 163.66 81.8251 163.127 81.0001C162.594 80.1751 162.182 79.9501 162.213 80.5001ZM16.206 82.5831C16.254 83.7481 16.491 83.9851 16.81 83.1881C17.099 82.4661 17.063 81.6031 16.731 81.2711C16.399 80.9391 16.163 81.5291 16.206 82.5831ZM140.627 84.0001C141.622 85.1001 142.662 86.0001 142.937 86.0001C143.212 86.0001 142.622 85.1001 141.627 84.0001C140.632 82.9001 139.592 82.0001 139.317 82.0001C139.042 82.0001 139.632 82.9001 140.627 84.0001ZM127.127 85.1251C127.127 85.4091 129.197 87.8031 131.728 90.4441C134.259 93.0851 135.87 94.4031 135.31 93.3731C134.238 91.4031 127.127 84.2351 127.127 85.1251ZM143.691 88.2931C144.067 89.2791 144.626 89.8341 144.934 89.5261C145.242 89.2191 144.935 88.4121 144.251 87.7331C143.263 86.7531 143.149 86.8681 143.691 88.2931ZM175.359 90.0001C175.359 91.9251 175.565 92.7131 175.816 91.7501C176.068 90.7871 176.068 89.2131 175.816 88.2501C175.565 87.2871 175.359 88.0751 175.359 90.0001ZM1.206 89.5831C1.254 90.7481 1.491 90.9851 1.81 90.1881C2.099 89.4661 2.063 88.6031 1.731 88.2711C1.399 87.9391 1.163 88.5291 1.206 89.5831ZM146.159 91.5591C146.176 92.0761 146.851 93.3741 147.659 94.4411C148.466 95.5091 149.113 95.9591 149.095 95.4411C149.078 94.9241 148.403 93.6261 147.595 92.5591C146.788 91.4911 146.141 91.0411 146.159 91.5591ZM2.158 94.5001C2.158 95.0501 2.594 96.1751 3.127 97.0001C3.66 97.8251 4.096 98.0501 4.096 97.5001C4.096 96.9501 3.66 95.8251 3.127 95.0001C2.594 94.1751 2.158 93.9501 2.158 94.5001ZM136.691 97.2931C137.067 98.2791 137.626 98.8341 137.934 98.5261C138.242 98.2191 137.935 97.4121 137.251 96.7331C136.263 95.7531 136.149 95.8681 136.691 97.2931ZM22.804 99.7581C23.774 101.55 26.59 104.925 29.061 107.258L33.554 111.5L29.088 106.5C26.631 103.75 23.815 100.375 22.83 99.0001C21.101 96.5851 21.1 96.6111 22.804 99.7581ZM173.691 99.7071C173.149 101.132 173.263 101.247 174.251 100.267C174.935 99.5881 175.242 98.7811 174.934 98.4741C174.626 98.1661 174.067 98.7211 173.691 99.7071ZM4.127 99.6421C4.127 100.179 4.827 101.491 5.682 102.559C7.149 104.389 7.169 104.357 6.047 102C4.589 98.9391 4.127 98.3721 4.127 99.6421ZM150.691 101.293C151.067 102.279 151.626 102.834 151.934 102.526C152.242 102.219 151.935 101.412 151.251 100.733C150.263 99.7531 150.149 99.8681 150.691 101.293ZM139.127 103.941C139.127 104.459 139.572 105.157 140.116 105.493C140.682 105.843 140.85 105.442 140.509 104.552C139.844 102.82 139.127 102.503 139.127 103.941ZM7.127 105.678C7.127 106.235 8.14 107.547 9.377 108.595L11.627 110.5L9.638 108C8.544 106.625 7.531 105.313 7.388 105.083C7.244 104.854 7.127 105.122 7.127 105.678ZM159.162 106.934C157.895 109.301 157.836 110.298 159.006 109.575C159.889 109.029 161.265 105 160.569 105C160.364 105 159.732 105.87 159.162 106.934ZM141.285 112C141.285 113.375 141.512 113.938 141.789 113.25C142.067 112.563 142.067 111.438 141.789 110.75C141.512 110.063 141.285 110.625 141.285 112ZM12.038 112.337C13.5 114.157 19.127 118.442 19.127 117.735C19.127 117.515 17.214 115.815 14.877 113.957C12.54 112.1 11.262 111.37 12.038 112.337ZM154.707 113.781L152.788 116.5L155.457 114.076C158.263 111.528 158.608 110.98 157.377 111.031C156.965 111.049 155.763 112.286 154.707 113.781ZM150.167 132.144C142.764 139.765 136.948 146 137.244 146C138.023 146 163.564 120.187 163.96 119C164.489 117.413 164.32 117.575 150.167 132.144ZM20.127 119.393C20.127 119.609 20.825 120.054 21.679 120.382C22.569 120.723 22.97 120.555 22.62 119.989C22.033 119.038 20.127 118.583 20.127 119.393ZM58.94 120.683C59.661 120.972 60.524 120.936 60.856 120.604C61.188 120.272 60.598 120.036 59.544 120.079C58.379 120.127 58.142 120.364 58.94 120.683ZM141.285 122C141.285 123.375 141.512 123.938 141.789 123.25C142.067 122.563 142.067 121.438 141.789 120.75C141.512 120.063 141.285 120.625 141.285 122ZM62.94 121.683C63.661 121.972 64.524 121.936 64.856 121.604C65.188 121.272 64.598 121.036 63.544 121.079C62.379 121.127 62.142 121.364 62.94 121.683ZM68.396 121.693C69.369 121.947 70.719 121.93 71.396 121.656C72.073 121.382 71.277 121.175 69.627 121.195C67.977 121.215 67.423 121.439 68.396 121.693ZM76.889 122.707C78.133 122.946 79.933 122.937 80.889 122.687C81.845 122.437 80.827 122.241 78.627 122.252C76.427 122.263 75.645 122.468 76.889 122.707ZM93.877 123.662C94.565 123.94 95.69 123.94 96.377 123.662C97.065 123.385 96.502 123.158 95.127 123.158C93.752 123.158 93.19 123.385 93.877 123.662ZM30.61 124.973C30.877 125.405 32.003 125.996 33.113 126.286C34.222 126.576 34.911 126.46 34.644 126.027C34.377 125.595 33.251 125.004 32.141 124.714C31.032 124.424 30.343 124.54 30.61 124.973ZM103.127 125C103.952 125.533 105.302 125.945 106.127 125.914C107.116 125.878 106.946 125.567 105.627 125C102.878 123.819 101.299 123.819 103.127 125ZM38.127 128C38.952 128.533 40.077 128.969 40.627 128.969C41.177 128.969 40.952 128.533 40.127 128C39.302 127.467 38.177 127.031 37.627 127.031C37.077 127.031 37.302 127.467 38.127 128ZM126.877 128.031C128.221 128.571 129.174 129.854 129.243 131.218C129.333 132.986 129.464 133.095 129.826 131.702C130.398 129.498 128.458 126.978 126.255 127.063C125.153 127.106 125.354 127.419 126.877 128.031ZM42.86 129.124C43.539 129.808 44.346 130.115 44.653 129.807C44.961 129.499 44.406 128.94 43.42 128.564C41.995 128.022 41.88 128.136 42.86 129.124ZM123.127 129.378C123.127 129.585 123.914 130.373 124.877 131.128C126.463 132.371 126.498 132.336 125.255 130.75C123.948 129.084 123.127 128.555 123.127 129.378ZM48.94 130.683C49.661 130.972 50.524 130.936 50.856 130.604C51.188 130.272 50.598 130.036 49.544 130.079C48.379 130.127 48.142 130.364 48.94 130.683ZM55.877 131.662C56.565 131.94 57.69 131.94 58.377 131.662C59.065 131.385 58.502 131.158 57.127 131.158C55.752 131.158 55.19 131.385 55.877 131.662ZM120.605 133.161C122.116 134.35 124.2 136.713 125.236 138.411C126.272 140.11 127.121 140.939 127.123 140.253C127.128 138.701 120.264 131 118.876 131C118.316 131 119.094 131.973 120.605 133.161ZM61.396 132.693C62.369 132.947 63.719 132.93 64.396 132.656C65.073 132.382 64.277 132.175 62.627 132.195C60.977 132.215 60.423 132.439 61.396 132.693ZM137.127 134C136.538 135.1 136.282 136 136.557 136C136.832 136 137.538 135.1 138.127 134C138.716 132.9 138.972 132 138.697 132C138.422 132 137.716 132.9 137.127 134ZM98.877 133.662C99.565 133.94 100.69 133.94 101.377 133.662C102.065 133.385 101.502 133.158 100.127 133.158C98.752 133.158 98.19 133.385 98.877 133.662ZM107.127 135C107.952 135.533 109.077 135.969 109.627 135.969C110.177 135.969 109.952 135.533 109.127 135C108.302 134.467 107.177 134.031 106.627 134.031C106.077 134.031 106.302 134.467 107.127 135ZM114.127 137.378C114.127 137.585 114.914 138.373 115.877 139.128C117.463 140.371 117.498 140.336 116.255 138.75C114.948 137.084 114.127 136.555 114.127 137.378ZM85.396 139.693C86.369 139.947 87.719 139.93 88.396 139.656C89.073 139.382 88.277 139.175 86.627 139.195C84.977 139.215 84.423 139.439 85.396 139.693ZM97.94 139.683C98.661 139.972 99.524 139.936 99.856 139.604C100.188 139.272 99.598 139.036 98.544 139.079C97.379 139.127 97.142 139.364 97.94 139.683ZM73.627 141C72.366 141.542 72.182 141.859 73.127 141.859C73.952 141.859 75.527 141.473 76.627 141C77.888 140.458 78.072 140.141 77.127 140.141C76.302 140.141 74.727 140.527 73.627 141ZM118.999 141.5C119.539 142.6 120.713 144.4 121.609 145.5L123.237 147.5L122.255 145.5C121.715 144.4 120.541 142.6 119.645 141.5L118.017 139.5L118.999 141.5ZM147.127 144C146.302 144.533 146.077 144.969 146.627 144.969C147.177 144.969 148.302 144.533 149.127 144C149.952 143.467 150.177 143.031 149.627 143.031C149.077 143.031 147.952 143.467 147.127 144ZM158.94 143.683C159.661 143.972 160.524 143.936 160.856 143.604C161.188 143.272 160.598 143.036 159.544 143.079C158.379 143.127 158.142 143.364 158.94 143.683ZM162.94 144.683C163.661 144.972 164.524 144.936 164.856 144.604C165.188 144.272 164.598 144.036 163.544 144.079C162.379 144.127 162.142 144.364 162.94 144.683ZM113.849 147.05C115.071 148.337 116.265 149.189 116.501 148.944C116.738 148.7 115.738 147.648 114.279 146.606L111.627 144.712L113.849 147.05ZM141.999 146.75C140.73 148.369 140.777 148.39 142.627 147.033C143.727 146.226 144.815 145.439 145.044 145.283C145.273 145.127 144.99 145 144.416 145C143.842 145 142.754 145.787 141.999 146.75ZM168.94 145.683C169.661 145.972 170.524 145.936 170.856 145.604C171.188 145.272 170.598 145.036 169.544 145.079C168.379 145.127 168.142 145.364 168.94 145.683ZM45.127 147C43.299 148.181 44.878 148.181 47.627 147C48.946 146.433 49.116 146.122 48.127 146.086C47.302 146.055 45.952 146.467 45.127 147ZM134.72 153.108C132.194 155.918 130.127 158.718 130.127 159.331C130.127 159.944 130.869 159.332 131.776 157.973C132.683 156.613 135.025 153.813 136.979 151.75C138.934 149.688 140.258 148 139.923 148C139.587 148 137.246 150.299 134.72 153.108ZM32.127 150C30.299 151.181 31.878 151.181 34.627 150C35.946 149.433 36.116 149.122 35.127 149.086C34.302 149.055 32.952 149.467 32.127 150ZM186.127 149.954C186.952 150.513 188.49 150.976 189.544 150.985C192.102 151.005 191.304 150.433 187.627 149.61C185.436 149.12 185.032 149.213 186.127 149.954ZM118.627 152C119.622 153.1 120.662 154 120.937 154C121.212 154 120.622 153.1 119.627 152C118.632 150.9 117.592 150 117.317 150C117.042 150 117.632 150.9 118.627 152ZM129.58 154.25L125.627 158.5L129.877 154.547C132.215 152.373 134.127 150.46 134.127 150.297C134.127 149.54 133.256 150.298 129.58 154.25ZM17.94 152.683C18.661 152.972 19.524 152.936 19.856 152.604C20.188 152.272 19.598 152.036 18.544 152.079C17.379 152.127 17.142 152.364 17.94 152.683ZM124.158 152.5C124.158 153.05 124.594 154.175 125.127 155C125.66 155.825 126.096 156.05 126.096 155.5C126.096 154.95 125.66 153.825 125.127 153C124.594 152.175 124.158 151.95 124.158 152.5ZM10.94 153.683C11.661 153.972 12.524 153.936 12.856 153.604C13.188 153.272 12.598 153.036 11.544 153.079C10.379 153.127 10.142 153.364 10.94 153.683ZM5.94 154.683C6.661 154.972 7.524 154.936 7.856 154.604C8.188 154.272 7.598 154.036 6.544 154.079C5.379 154.127 5.142 154.364 5.94 154.683ZM205.94 154.683C206.661 154.972 207.524 154.936 207.856 154.604C208.188 154.272 207.598 154.036 206.544 154.079C205.379 154.127 205.142 154.364 205.94 154.683ZM212.94 155.683C213.661 155.972 214.524 155.936 214.856 155.604C215.188 155.272 214.598 155.036 213.544 155.079C212.379 155.127 212.142 155.364 212.94 155.683ZM37.472 165.543C37.146 166.392 37.103 167.31 37.376 167.583C37.65 167.856 38.113 167.161 38.406 166.04C39.03 163.657 38.337 163.289 37.472 165.543ZM129.531 168L129.627 170.5L173.627 170.516L217.627 170.532L173.942 170.256L130.258 169.979L129.846 167.74C129.491 165.81 129.447 165.846 129.531 168ZM15.767 168.495C15.235 169.882 13.901 170.104 7.72 169.829C3.645 169.648 0.521002 169.838 0.778002 170.25C1.525 171.45 14.929 171.129 15.693 169.893C16.17 169.122 16.637 169.197 17.237 170.143C17.71 170.889 18.096 171.05 18.096 170.5C18.096 169.95 17.716 168.9 17.251 168.166C16.576 167.102 16.276 167.168 15.767 168.495ZM35.206 169.583C35.254 170.748 35.491 170.985 35.81 170.188C36.099 169.466 36.063 168.603 35.731 168.271C35.399 167.939 35.163 168.529 35.206 169.583ZM80.127 170L36.627 170.532L80.377 170.766C109.033 170.919 124.127 170.655 124.127 170C124.127 169.45 124.014 169.105 123.877 169.234C123.74 169.363 104.052 169.707 80.127 170ZM21.794 170.667C20.469 171.992 21.173 172.999 23.377 172.93C25.51 172.863 25.523 172.818 23.627 172.065L21.627 171.27L23.627 170.751C24.963 170.404 25.101 170.193 24.044 170.116C23.173 170.052 22.16 170.3 21.794 170.667ZM27.627 170.935L29.627 171.73L27.627 172.308C25.824 172.828 25.816 172.866 27.544 172.693C30.392 172.407 30.776 169.985 27.96 170.07C25.784 170.136 25.761 170.194 27.627 170.935ZM34.206 173.583C34.254 174.748 34.491 174.985 34.81 174.188C35.099 173.466 35.063 172.603 34.731 172.271C34.399 171.939 34.163 172.529 34.206 173.583ZM23.698 175.571C21.889 177.381 21.647 179 23.186 179C23.768 179 23.967 178.55 23.627 178C23.287 177.45 23.437 177 23.961 177C24.485 177 25.172 176.325 25.489 175.5C26.227 173.577 25.671 173.599 23.698 175.571ZM11.999 178.75C10.756 180.336 10.791 180.371 12.377 179.128C14.043 177.821 14.572 177 13.749 177C13.542 177 12.754 177.787 11.999 178.75ZM9.03 182.307C9.476 182.751 12.268 182.97 15.234 182.793L20.627 182.472L14.423 181.986C11.011 181.719 8.584 181.863 9.03 182.307ZM30.285 184C29.065 185.65 28.434 187 28.881 187C29.329 187 30.493 185.65 31.468 184C32.443 182.35 33.074 181 32.872 181C32.669 181 31.505 182.35 30.285 184ZM18.751 187.539C17.786 190.053 18.07 190.702 19.249 188.675C19.833 187.671 20.1 186.639 19.842 186.382C19.585 186.124 19.093 186.645 18.751 187.539ZM24.568 189.555C22.704 191.049 22.716 191.067 24.877 190.02C26.114 189.42 27.127 188.72 27.127 188.465C27.127 187.7 26.608 187.921 24.568 189.555Z" fill="#B8B8B8"/>
<path id="Layer 4" fill-rule="evenodd" clip-rule="evenodd" d="M35.206 19.5831C35.254 20.7481 35.491 20.9851 35.81 20.1881C36.099 19.4661 36.063 18.6031 35.731 18.2711C35.399 17.9391 35.163 18.5291 35.206 19.5831ZM86.206 27.5831C86.254 28.7481 86.491 28.9851 86.81 28.1881C87.099 27.4661 87.063 26.6031 86.731 26.2711C86.399 25.9391 86.163 26.5291 86.206 27.5831ZM47.127 51.3781C47.127 51.5851 47.914 52.3731 48.877 53.1281C50.463 54.3711 50.498 54.3361 49.255 52.7501C47.948 51.0841 47.127 50.5551 47.127 51.3781ZM31.627 54.0001C32.622 55.1001 33.662 56.0001 33.937 56.0001C34.212 56.0001 33.622 55.1001 32.627 54.0001C31.632 52.9001 30.592 52.0001 30.317 52.0001C30.042 52.0001 30.632 52.9001 31.627 54.0001ZM108.999 53.7501C107.756 55.3361 107.791 55.3711 109.377 54.1281C111.043 52.8211 111.572 52.0001 110.749 52.0001C110.542 52.0001 109.754 52.7881 108.999 53.7501ZM125.322 55.5001C125.342 57.1501 125.566 57.7041 125.82 56.7311C126.074 55.7581 126.057 54.4081 125.783 53.7311C125.509 53.0541 125.302 53.8501 125.322 55.5001ZM37.127 55.3781C37.127 55.5851 37.914 56.3731 38.877 57.1281C40.463 58.3711 40.498 58.3361 39.255 56.7501C37.948 55.0841 37.127 54.5551 37.127 55.3781ZM56.085 61.2501C60.229 65.6651 61.127 66.4591 61.127 65.7081C61.127 65.5481 58.989 63.4101 56.377 60.9581L51.627 56.5001L56.085 61.2501ZM38.127 60.3781C38.127 60.5851 38.914 61.3731 39.877 62.1281C41.463 63.3711 41.498 63.3361 40.255 61.7501C38.948 60.0841 38.127 59.5551 38.127 60.3781ZM163.127 62.5001C164.419 63.8751 165.701 65.0001 165.976 65.0001C166.251 65.0001 165.419 63.8751 164.127 62.5001C162.835 61.1251 161.553 60.0001 161.278 60.0001C161.003 60.0001 161.835 61.1251 163.127 62.5001ZM35.127 64.5001C36.993 66.4251 38.744 68.0001 39.019 68.0001C39.294 68.0001 37.993 66.4251 36.127 64.5001C34.261 62.5751 32.51 61.0001 32.235 61.0001C31.96 61.0001 33.261 62.5751 35.127 64.5001ZM125.127 69.3781C125.127 69.5851 125.914 70.3731 126.877 71.1281C128.463 72.3711 128.498 72.3361 127.255 70.7501C125.948 69.0841 125.127 68.5551 125.127 69.3781ZM68.127 71.3781C68.127 71.5851 68.914 72.3731 69.877 73.1281C71.463 74.3711 71.498 74.3361 70.255 72.7501C68.948 71.0841 68.127 70.5551 68.127 71.3781ZM133.127 75.3131C133.127 75.4851 134.59 76.9481 136.377 78.5631L139.627 81.5001L136.69 78.2501C133.952 75.2211 133.127 74.5401 133.127 75.3131ZM78.691 79.2931C79.067 80.2791 79.626 80.8341 79.934 80.5261C80.242 80.2191 79.935 79.4121 79.251 78.7331C78.263 77.7531 78.149 77.8681 78.691 79.2931ZM118.127 78.3781C118.127 78.5851 118.914 79.3731 119.877 80.1281C121.463 81.3711 121.498 81.3361 120.255 79.7501C118.948 78.0841 118.127 77.5551 118.127 78.3781ZM175.359 90.0001C175.359 91.9251 175.565 92.7131 175.816 91.7501C176.068 90.7871 176.068 89.2131 175.816 88.2501C175.565 87.2871 175.359 88.0751 175.359 90.0001ZM12.627 113C13.622 114.1 14.662 115 14.937 115C15.212 115 14.622 114.1 13.627 113C12.632 111.9 11.592 111 11.317 111C11.042 111 11.632 111.9 12.627 113ZM153.999 114.75C152.756 116.336 152.791 116.371 154.377 115.128C155.34 114.373 156.127 113.585 156.127 113.378C156.127 112.555 155.306 113.084 153.999 114.75ZM161.999 120.75C160.756 122.336 160.791 122.371 162.377 121.128C163.34 120.373 164.127 119.585 164.127 119.378C164.127 118.555 163.306 119.084 161.999 120.75ZM141.206 121.583C141.254 122.748 141.491 122.985 141.81 122.188C142.099 121.466 142.063 120.603 141.731 120.271C141.399 119.939 141.163 120.529 141.206 121.583ZM68.877 121.662C69.565 121.94 70.69 121.94 71.377 121.662C72.065 121.385 71.502 121.158 70.127 121.158C68.752 121.158 68.19 121.385 68.877 121.662ZM78.877 122.662C79.565 122.94 80.69 122.94 81.377 122.662C82.065 122.385 81.502 122.158 80.127 122.158C78.752 122.158 78.19 122.385 78.877 122.662ZM147.093 135.75L141.627 141.5L147.377 136.034C152.719 130.956 153.585 130 152.843 130C152.687 130 150.099 132.588 147.093 135.75ZM60.94 132.683C61.661 132.972 62.524 132.936 62.856 132.604C63.188 132.272 62.598 132.036 61.544 132.079C60.379 132.127 60.142 132.364 60.94 132.683ZM98.94 133.683C99.661 133.972 100.524 133.936 100.856 133.604C101.188 133.272 100.598 133.036 99.544 133.079C98.379 133.127 98.142 133.364 98.94 133.683ZM132.999 154.75C131.756 156.336 131.791 156.371 133.377 155.128C135.043 153.821 135.572 153 134.749 153C134.542 153 133.754 153.787 132.999 154.75ZM37.586 165.067C37.223 165.653 37.141 166.348 37.403 166.61C37.665 166.872 38.146 166.392 38.472 165.543C39.148 163.781 38.572 163.471 37.586 165.067ZM129.531 168L129.627 170.5L173.627 170.516L217.627 170.532L173.942 170.256L130.258 169.979L129.846 167.74C129.491 165.81 129.447 165.846 129.531 168ZM4.37702 170.728C6.44002 170.944 9.81502 170.944 11.877 170.728C13.94 170.513 12.252 170.336 8.12702 170.336C4.00202 170.336 2.31502 170.513 4.37702 170.728ZM58.945 170.749C71.22 170.908 91.02 170.908 102.945 170.749C114.87 170.589 104.827 170.459 80.627 170.459C56.427 170.46 46.67 170.59 58.945 170.749ZM23.627 176C23.287 176.55 23.486 177 24.068 177C24.65 177 25.127 176.55 25.127 176C25.127 175.45 24.929 175 24.686 175C24.443 175 23.967 175.45 23.627 176ZM8.94502 182.218C9.47802 182.751 10.75 183.011 11.771 182.794C13.146 182.503 12.894 182.251 10.801 181.825C8.97602 181.452 8.31902 181.592 8.94502 182.218Z" fill="#9E9E9E"/>
<path id="Layer 5" fill-rule="evenodd" clip-rule="evenodd" d="M35.127 64.5001C36.993 66.4251 38.744 68.0001 39.019 68.0001C39.294 68.0001 37.993 66.4251 36.127 64.5001C34.261 62.5751 32.51 61.0001 32.235 61.0001C31.96 61.0001 33.261 62.5751 35.127 64.5001ZM134.627 77.0001C135.622 78.1001 136.662 79.0001 136.937 79.0001C137.212 79.0001 136.622 78.1001 135.627 77.0001C134.632 75.9001 133.592 75.0001 133.317 75.0001C133.042 75.0001 133.632 75.9001 134.627 77.0001ZM148.999 133.75C147.756 135.336 147.791 135.371 149.377 134.128C151.043 132.821 151.572 132 150.749 132C150.542 132 149.754 132.787 148.999 133.75ZM132.877 170.706C134.115 170.944 136.139 170.944 137.377 170.706C138.615 170.467 137.602 170.272 135.127 170.272C132.652 170.272 131.639 170.467 132.877 170.706ZM212.377 170.689C213.339 170.941 214.915 170.941 215.877 170.689C216.839 170.438 216.052 170.232 214.127 170.232C212.202 170.232 211.415 170.438 212.377 170.689Z" fill="#8F8F8F"/>
</g>
</svg>
